<?xml version="1.0" encoding="utf-8"?>
<!-- Generator: Adobe Illustrator 25.4.1, SVG Export Plug-In . SVG Version: 6.00 Build 0)  -->
<svg version="1.1" id="Outline" xmlns="http://www.w3.org/2000/svg" xmlns:xlink="http://www.w3.org/1999/xlink" x="0px" y="0px"
	 viewBox="0 0 512 512" style="enable-background:new 0 0 512 512;" xml:space="preserve">
<style type="text/css">
	.st0{fill:#BC29C1;}
	.st1{fill:#FFFFFF;}
</style>
<path class="st0" d="M490.7,512H21.3C9.5,512,0,502.5,0,490.7V20.9C0,9.2,9.5-0.3,21.3-0.3h469.5c11.7,0,21.3,9.5,21.3,21.3v469.8
	C512,502.5,502.5,512,490.7,512z"/>
<path class="st1" d="M256,249.1c23,0,41.6-18.6,41.6-41.6S279,165.9,256,165.9s-41.6,18.6-41.6,41.6S233,249.1,256,249.1z
	 M256,179.7c15.3,0,27.7,12.4,27.7,27.7s-12.4,27.7-27.7,27.7s-27.7-12.4-27.7-27.7S240.7,179.7,256,179.7z"/>
<path class="st1" d="M256,214.4h6.9c3.8,0,6.9-3.1,6.9-6.9s-3.1-6.9-6.9-6.9v-6.9c0-3.8-3.1-6.9-6.9-6.9s-6.9,3.1-6.9,6.9v13.9
	C249.1,211.3,252.2,214.4,256,214.4z"/>
<path class="st1" d="M311.5,297.6v-27.7c0-3.8-3.1-6.9-6.9-6.9h-97.1c-3.8,0-6.9,3.1-6.9,6.9v27.7c0,3.8,3.1,6.9,6.9,6.9h97.1
	C308.3,304.5,311.5,301.4,311.5,297.6z M297.6,290.7h-83.2v-13.9h83.2V290.7z"/>
<path class="st1" d="M96.5,262.9H152c3.8,0,6.9-3.1,6.9-6.9c0-3.8-3.1-6.9-6.9-6.9v-48.5c0-3.8-3.1-6.9-6.9-6.9h-41.6
	c-3.8,0-6.9,3.1-6.9,6.9v48.5c-3.8,0-6.9,3.1-6.9,6.9C89.6,259.8,92.7,262.9,96.5,262.9z M110.4,207.5h27.7v41.6h-27.7V207.5z"/>
<path class="st1" d="M152,332.3v-48.5c0-3.8-3.1-6.9-6.9-6.9h-41.6c-3.8,0-6.9,3.1-6.9,6.9v48.5c-3.8,0-6.9,3.1-6.9,6.9
	s3.1,6.9,6.9,6.9H152c3.8,0,6.9-3.1,6.9-6.9S155.8,332.3,152,332.3z M110.4,290.7h27.7v41.6h-27.7V290.7z"/>
<path class="st1" d="M152,415.5v-48.5c0-3.8-3.1-6.9-6.9-6.9h-41.6c-3.8,0-6.9,3.1-6.9,6.9v48.5c-3.8,0-6.9,3.1-6.9,6.9
	s3.1,6.9,6.9,6.9H152c3.8,0,6.9-3.1,6.9-6.9S155.8,415.5,152,415.5z M110.4,373.9h27.7v41.6h-27.7V373.9z"/>
<path class="st1" d="M360,262.9h55.5c3.8,0,6.9-3.1,6.9-6.9c0-3.8-3.1-6.9-6.9-6.9v-48.5c0-3.8-3.1-6.9-6.9-6.9h-41.6
	c-3.8,0-6.9,3.1-6.9,6.9v48.5c-3.8,0-6.9,3.1-6.9,6.9C353.1,259.8,356.2,262.9,360,262.9z M373.9,207.5h27.7v41.6h-27.7V207.5z"/>
<path class="st1" d="M360,346.1h55.5c3.8,0,6.9-3.1,6.9-6.9s-3.1-6.9-6.9-6.9v-48.5c0-3.8-3.1-6.9-6.9-6.9h-41.6
	c-3.8,0-6.9,3.1-6.9,6.9v48.5c-3.8,0-6.9,3.1-6.9,6.9S356.2,346.1,360,346.1z M373.9,290.7h27.7v41.6h-27.7V290.7z"/>
<path class="st1" d="M360,429.3h55.5c3.8,0,6.9-3.1,6.9-6.9s-3.1-6.9-6.9-6.9v-48.5c0-3.8-3.1-6.9-6.9-6.9h-41.6
	c-3.8,0-6.9,3.1-6.9,6.9v48.5c-3.8,0-6.9,3.1-6.9,6.9S356.2,429.3,360,429.3z M373.9,373.9h27.7v41.6h-27.7V373.9z"/>
<path class="st1" d="M457.1,172.8c3.8,0,6.9-3.1,6.9-6.9s-3.1-6.9-6.9-6.9H334.5l-71.6-52.1v-16l33.5,5.5c3.8,0.6,7.4-1.9,8-5.7
	c0.1-0.3,0.1-0.8,0.1-1.1V61.9c0-3.4-2.4-6.2-5.8-6.8l-41.6-6.9l0,0c-3.7-0.7-7.3,1.8-8,5.6c-0.1,0.4-0.1,0.8-0.1,1.2v51.9
	l-71.6,52.1H54.9c-3.8,0-6.9,3.1-6.9,6.9s3.1,6.9,6.9,6.9h6.9v277.3h-6.9c-3.8,0-6.9,3.1-6.9,6.9s3.1,6.9,6.9,6.9h402.1
	c3.8,0,6.9-3.1,6.9-6.9s-3.1-6.9-6.9-6.9h-6.9V172.8H457.1z M249.1,450.1h-27.7v-76.3c0-16.5,11.6-30.7,27.7-34V450.1z M262.9,339.9
	c16.1,3.3,27.7,17.5,27.7,34v76.3h-27.7V339.9z M256,325.3c-26.8,0-48.5,21.8-48.5,48.5v76.3h-20.8V169.4L256,119l69.3,50.4v280.7
	h-20.8v-76.3C304.5,347.1,282.8,325.3,256,325.3z M290.7,81.5l-27.7-4.6V63.1l27.7,4.6V81.5z M75.7,172.8h97.1v277.3H75.7V172.8z
	 M436.3,450.1h-97.1V172.8h97.1V450.1z"/>
</svg>
