<?xml version="1.0" encoding="utf-8"?>
<!-- Generator: Adobe Illustrator 24.3.0, SVG Export Plug-In . SVG Version: 6.00 Build 0)  -->
<svg version="1.1" id="Outline" xmlns="http://www.w3.org/2000/svg" xmlns:xlink="http://www.w3.org/1999/xlink" x="0px" y="0px"
	 viewBox="0 0 512 512" style="enable-background:new 0 0 512 512;" xml:space="preserve">
<style type="text/css">
	.st0{fill:#BFAE0D;}
</style>
<path class="st0" d="M256,248c26.5,0,48-21.5,48-48s-21.5-48-48-48s-48,21.5-48,48C208,226.5,229.5,248,256,248z M256,168
	c17.7,0,32,14.3,32,32s-14.3,32-32,32s-32-14.3-32-32C224,182.3,238.3,168,256,168z"/>
<path class="st0" d="M256,208h8c4.4,0,8-3.6,8-8s-3.6-8-8-8v-8c0-4.4-3.6-8-8-8s-8,3.6-8,8v16C248,204.4,251.6,208,256,208z"/>
<path class="st0" d="M320,304v-32c0-4.4-3.6-8-8-8H200c-4.4,0-8,3.6-8,8v32c0,4.4,3.6,8,8,8h112C316.4,312,320,308.4,320,304z
	 M304,296h-96v-16h96V296z"/>
<path class="st0" d="M72,264h64c4.4,0,8-3.6,8-8s-3.6-8-8-8v-56c0-4.4-3.6-8-8-8H80c-4.4,0-8,3.6-8,8v56c-4.4,0-8,3.6-8,8
	S67.6,264,72,264z M88,200h32v48H88V200z"/>
<path class="st0" d="M136,344v-56c0-4.4-3.6-8-8-8H80c-4.4,0-8,3.6-8,8v56c-4.4,0-8,3.6-8,8s3.6,8,8,8h64c4.4,0,8-3.6,8-8
	S140.4,344,136,344z M88,296h32v48H88V296z"/>
<path class="st0" d="M136,440v-56c0-4.4-3.6-8-8-8H80c-4.4,0-8,3.6-8,8v56c-4.4,0-8,3.6-8,8s3.6,8,8,8h64c4.4,0,8-3.6,8-8
	S140.4,440,136,440z M88,392h32v48H88V392z"/>
<path class="st0" d="M376,264h64c4.4,0,8-3.6,8-8s-3.6-8-8-8v-56c0-4.4-3.6-8-8-8h-48c-4.4,0-8,3.6-8,8v56c-4.4,0-8,3.6-8,8
	S371.6,264,376,264z M392,200h32v48h-32V200z"/>
<path class="st0" d="M376,360h64c4.4,0,8-3.6,8-8s-3.6-8-8-8v-56c0-4.4-3.6-8-8-8h-48c-4.4,0-8,3.6-8,8v56c-4.4,0-8,3.6-8,8
	S371.6,360,376,360z M392,296h32v48h-32V296z"/>
<path class="st0" d="M376,456h64c4.4,0,8-3.6,8-8s-3.6-8-8-8v-56c0-4.4-3.6-8-8-8h-48c-4.4,0-8,3.6-8,8v56c-4.4,0-8,3.6-8,8
	S371.6,456,376,456z M392,392h32v48h-32V392z"/>
<path class="st0" d="M488,160c4.4,0,8-3.6,8-8s-3.6-8-8-8H346.6L264,83.9V65.4l38.7,6.4c4.4,0.7,8.5-2.2,9.2-6.6
	c0.1-0.4,0.1-0.9,0.1-1.3V32c0-3.9-2.8-7.2-6.7-7.9l-48-8v0c-4.3-0.8-8.4,2.1-9.2,6.5c-0.1,0.5-0.1,0.9-0.1,1.4v59.9L165.4,144H24
	c-4.4,0-8,3.6-8,8s3.6,8,8,8h8v320h-8c-4.4,0-8,3.6-8,8s3.6,8,8,8h464c4.4,0,8-3.6,8-8s-3.6-8-8-8h-8V160H488z M248,480h-32v-88
	c0-19,13.4-35.4,32-39.2V480z M264,352.8c18.6,3.8,32,20.2,32,39.2v88h-32V352.8z M256,336c-30.9,0-56,25.1-56,56v88h-24V156.1
	l80-58.2l80,58.2V480h-24v-88C312,361.1,286.9,336,256,336z M296,54.6l-32-5.3V33.4l32,5.3V54.6z M48,160h112v320H48V160z M464,480
	H352V160h112V480z"/>
</svg>
