<?xml version="1.0" encoding="utf-8"?>
<!-- Generator: Adobe Illustrator 25.4.1, SVG Export Plug-In . SVG Version: 6.00 Build 0)  -->
<svg version="1.1" id="Outline" xmlns="http://www.w3.org/2000/svg" xmlns:xlink="http://www.w3.org/1999/xlink" x="0px" y="0px"
	 viewBox="0 0 512 512" style="enable-background:new 0 0 512 512;" xml:space="preserve">
<style type="text/css">
	.st0{fill:#62B762;}
	.st1{fill:#FFFFFF;}
</style>
<path class="st0" d="M490.7,512H21.3C9.5,512,0,502.5,0,490.7V20.9C0,9.2,9.5-0.3,21.3-0.3h469.5c11.7,0,21.3,9.5,21.3,21.3v469.8
	C512,502.5,502.5,512,490.7,512z"/>
<path class="st1" d="M457.1,110.4H54.9c-3.8,0-6.9,3.1-6.9,6.9v277.3c0,3.8,3.1,6.9,6.9,6.9h402.1c3.8,0,6.9-3.1,6.9-6.9V117.3
	C464,113.5,460.9,110.4,457.1,110.4z M450.1,387.7H61.9V124.3h388.3V387.7z"/>
<path class="st1" d="M82.7,353.1c0.2,0,15.9,0.2,21.1,16c1,2.9,3.6,4.8,6.6,4.8h291.2c2.9,0,5.6-1.9,6.6-4.8
	c5.2-15.6,20.5-16,21.1-16c3.8,0,6.9-3.1,6.9-6.9V165.9c0-3.8-3.1-6.9-6.9-6.9c-0.2,0-15.9-0.2-21.1-16c-1-2.9-3.6-4.8-6.6-4.8
	H110.4c-2.9,0-5.6,1.9-6.6,4.8c-5.2,15.6-20.5,16-21.1,16c-3.8,0-6.9,3.1-6.9,6.9v180.3C75.7,349.9,78.9,353.1,82.7,353.1z
	 M89.6,171.9c11.1-2.4,20.5-9.7,25.5-19.9h281.8c4.9,10.2,14.4,17.6,25.5,19.9v168.1c-11.1,2.4-20.5,9.7-25.5,19.9H115.1
	c-4.9-10.2-14.4-17.6-25.5-19.9V171.9z"/>
<path class="st1" d="M138.1,221.3h124.8c3.8,0,6.9-3.1,6.9-6.9v-27.7c0-3.8-3.1-6.9-6.9-6.9H138.1c-3.8,0-6.9,3.1-6.9,6.9v27.7
	C131.2,218.2,134.3,221.3,138.1,221.3z M145.1,193.6H256v13.9H145.1V193.6z"/>
<path class="st1" d="M117.3,249.1h166.4c3.8,0,6.9-3.1,6.9-6.9s-3.1-6.9-6.9-6.9H117.3c-3.8,0-6.9,3.1-6.9,6.9
	S113.5,249.1,117.3,249.1z"/>
<path class="st1" d="M117.3,276.8h166.4c3.8,0,6.9-3.1,6.9-6.9s-3.1-6.9-6.9-6.9H117.3c-3.8,0-6.9,3.1-6.9,6.9
	S113.5,276.8,117.3,276.8z"/>
<path class="st1" d="M242.1,290.7h-83.2c-3.8,0-6.9,3.1-6.9,6.9s3.1,6.9,6.9,6.9h83.2c3.8,0,6.9-3.1,6.9-6.9
	S245.9,290.7,242.1,290.7z"/>
<path class="st1" d="M325.3,325.3c0,3.8,3.1,6.9,6.9,6.9c1.8,0,3.6-0.7,4.9-2l22.8-22.8l22.8,22.8c2.7,2.7,7.1,2.7,9.8,0
	c1.3-1.3,2-3,2-4.9v-63.2c18.7-19.2,18.5-49.8-0.7-68.6c-19.2-18.8-49.8-18.5-68.6,0.7c-18.5,18.9-18.5,49.1,0,67.9L325.3,325.3
	L325.3,325.3z M364.9,292.7c-2.7-2.7-7.1-2.7-9.8,0l0,0l-15.9,15.9v-36.5c13.2,6.2,28.4,6.2,41.6,0v36.5L364.9,292.7z M360,193.6
	c19.2,0,34.7,15.5,34.7,34.7s-15.5,34.7-34.7,34.7s-34.7-15.5-34.7-34.7S340.8,193.6,360,193.6z"/>
<path class="st1" d="M360,249.1c11.5,0,20.8-9.3,20.8-20.8s-9.3-20.8-20.8-20.8s-20.8,9.3-20.8,20.8
	C339.2,239.7,348.6,249.1,360,249.1z M360,221.3c3.8,0,6.9,3.1,6.9,6.9c0,3.8-3.1,6.9-6.9,6.9s-6.9-3.1-6.9-6.9
	C353.1,224.5,356.2,221.3,360,221.3z"/>
<path class="st1" d="M186.7,318.4h-27.7c-3.8,0-6.9,3.1-6.9,6.9s3.1,6.9,6.9,6.9h27.7c3.8,0,6.9-3.1,6.9-6.9
	S190.5,318.4,186.7,318.4z"/>
<path class="st1" d="M242.1,318.4h-27.7c-3.8,0-6.9,3.1-6.9,6.9s3.1,6.9,6.9,6.9h27.7c3.8,0,6.9-3.1,6.9-6.9
	S245.9,318.4,242.1,318.4z"/>
</svg>
