<?xml version="1.0" encoding="utf-8"?>
<!-- Generator: Adobe Illustrator 25.4.1, SVG Export Plug-In . SVG Version: 6.00 Build 0)  -->
<svg version="1.1" id="Capa_1" xmlns="http://www.w3.org/2000/svg" xmlns:xlink="http://www.w3.org/1999/xlink" x="0px" y="0px"
	 viewBox="0 0 512 512" style="enable-background:new 0 0 512 512;" xml:space="preserve">
<style type="text/css">
	.st0{fill:#606060;}
	.st1{fill:#FFFFFF;}
</style>
<path class="st0" d="M490.7,512H21.3C9.5,512,0,502.5,0,490.7V20.9C0,9.2,9.5-0.3,21.3-0.3h469.5c11.7,0,21.3,9.5,21.3,21.3v469.8
	C512,502.5,502.5,512,490.7,512z"/>
<g>
	<g>
		<g>
			<path class="st1" d="M462,454.8h-28.4V256c0-11.7-9.6-21.3-21.3-21.3v-42.6c0-11.7-9.6-21.3-21.3-21.3v-42.6
				c0-11.7-9.6-21.3-21.3-21.3V64.2c0-11.7-9.6-21.3-21.3-21.3H163.7c-11.7,0-21.3,9.6-21.3,21.3v42.6c-11.7,0-21.3,9.6-21.3,21.3
				v42.6c-11.7,0-21.3,9.6-21.3,21.3v42.6c-11.7,0-21.3,9.6-21.3,21.3v198.9H50c-3.9,0-7.1,3.2-7.1,7.1c0,3.9,3.2,7.1,7.1,7.1h411.9
				c3.9,0,7.1-3.2,7.1-7.1C469,458,465.9,454.8,462,454.8z M156.5,64.2c0-3.9,3.2-7.1,7.1-7.1h184.7c3.9,0,7.1,3.2,7.1,7.1v42.6
				H248.2c-3.4-16.6-17.9-28.4-34.8-28.4s-31.4,11.8-34.8,28.4h-22.1V64.2L156.5,64.2z M233.4,106.8h-40c3-8.5,11-14.2,20-14.2
				S230.4,98.3,233.4,106.8z M135.2,128.1c0-3.9,3.2-7.1,7.1-7.1h227.3c3.9,0,7.1,3.2,7.1,7.1v42.6H226.9
				c-3.4-16.6-17.9-28.4-34.8-28.4s-31.4,11.9-34.8,28.4h-22.1L135.2,128.1L135.2,128.1z M212,170.8h-40c3-8.5,11-14.2,20-14.2
				S209.1,162.3,212,170.8z M113.9,192.1c0-3.9,3.2-7.1,7.1-7.1h269.9c3.9,0,7.1,3.2,7.1,7.1v42.6H205.5
				c-3.4-16.6-17.9-28.4-34.8-28.4s-31.4,11.9-34.8,28.4h-22.1V192.1z M190.7,234.7h-40c3-8.5,11-14.2,20-14.2
				C179.7,220.4,187.8,226.2,190.7,234.7z M419.4,454.8H92.6V256c0-3.9,3.2-7.1,7.1-7.1h312.6c3.9,0,7.1,3.2,7.1,7.1L419.4,454.8
				L419.4,454.8z"/>
			<path class="st1" d="M163.7,362.5c23.6,0,42.6-19.1,42.6-42.6s-19.1-42.6-42.6-42.6s-42.6,19.1-42.6,42.6
				S140.1,362.5,163.7,362.5z M163.7,291.5c15.7,0,28.4,12.7,28.4,28.4c0,15.7-12.7,28.4-28.4,28.4s-28.4-12.7-28.4-28.4
				S147.9,291.5,163.7,291.5z"/>
			<path class="st1" d="M383.8,277.3H234.7c-3.9,0-7.1,3.2-7.1,7.1s3.2,7.1,7.1,7.1h149.2c3.9,0,7.1-3.2,7.1-7.1
				S387.8,277.3,383.8,277.3z"/>
			<path class="st1" d="M383.8,312.8H234.7c-3.9,0-7.1,3.2-7.1,7.1s3.2,7.1,7.1,7.1h149.2c3.9,0,7.1-3.2,7.1-7.1
				C390.9,316,387.8,312.8,383.8,312.8z"/>
			<path class="st1" d="M383.8,348.3H234.7c-3.9,0-7.1,3.2-7.1,7.1s3.2,7.1,7.1,7.1h149.2c3.9,0,7.1-3.2,7.1-7.1
				S387.8,348.3,383.8,348.3z"/>
			<path class="st1" d="M383.8,383.8H128.1c-3.9,0-7.1,3.2-7.1,7.1s3.2,7.1,7.1,7.1h255.7c3.9,0,7.1-3.2,7.1-7.1
				S387.8,383.8,383.8,383.8z"/>
			<path class="st1" d="M383.8,419.4H128.1c-3.9,0-7.1,3.2-7.1,7.1s3.2,7.1,7.1,7.1h255.7c3.9,0,7.1-3.2,7.1-7.1
				S387.8,419.4,383.8,419.4z"/>
		</g>
	</g>
</g>
</svg>
