<?xml version="1.0" encoding="utf-8"?>
<!-- Generator: Adobe Illustrator 24.3.0, SVG Export Plug-In . SVG Version: 6.00 Build 0)  -->
<svg version="1.1" id="Capa_1" xmlns="http://www.w3.org/2000/svg" xmlns:xlink="http://www.w3.org/1999/xlink" x="0px" y="0px"
	 viewBox="0 0 512 512" style="enable-background:new 0 0 512 512;" xml:space="preserve">
<style type="text/css">
	.st0{fill:#606060;}
</style>
<g>
	<g>
		<g>
			<path class="st0" d="M503.5,494.9h-34.1V256c0-14.1-11.5-25.6-25.6-25.6v-51.2c0-14.1-11.5-25.6-25.6-25.6v-51.2
				c0-14.1-11.5-25.6-25.6-25.6V25.6c0-14.1-11.5-25.6-25.6-25.6H145.1c-14.1,0-25.6,11.5-25.6,25.6v51.2
				c-14.1,0-25.6,11.5-25.6,25.6v51.2c-14.1,0-25.6,11.5-25.6,25.6v51.2c-14.1,0-25.6,11.5-25.6,25.6v238.9H8.5
				c-4.7,0-8.5,3.8-8.5,8.5s3.8,8.5,8.5,8.5h494.9c4.7,0,8.5-3.8,8.5-8.5S508.2,494.9,503.5,494.9z M136.5,25.6
				c0-4.7,3.8-8.5,8.5-8.5h221.9c4.7,0,8.5,3.8,8.5,8.5v51.2H246.6c-4.1-19.9-21.5-34.1-41.8-34.1S167.1,56.9,163,76.8h-26.5
				L136.5,25.6L136.5,25.6z M228.8,76.8h-48.1c3.6-10.2,13.2-17.1,24-17.1S225.3,66.6,228.8,76.8z M110.9,102.4
				c0-4.7,3.8-8.5,8.5-8.5h273.1c4.7,0,8.5,3.8,8.5,8.5v51.2H221c-4.1-19.9-21.5-34.1-41.8-34.1s-37.7,14.3-41.8,34.1h-26.5
				L110.9,102.4L110.9,102.4z M203.2,153.6h-48.1c3.6-10.2,13.2-17.1,24-17.1S199.7,143.4,203.2,153.6z M85.3,179.2
				c0-4.7,3.8-8.5,8.5-8.5h324.3c4.7,0,8.5,3.8,8.5,8.5v51.2H195.4c-4.1-19.9-21.5-34.1-41.8-34.1s-37.7,14.3-41.8,34.1H85.3V179.2z
				 M177.6,230.4h-48.1c3.6-10.2,13.2-17.1,24-17.1S174.1,220.2,177.6,230.4z M452.3,494.9H59.7V256c0-4.7,3.8-8.5,8.5-8.5h375.5
				c4.7,0,8.5,3.8,8.5,8.5L452.3,494.9L452.3,494.9z"/>
			<path class="st0" d="M145.1,384c28.3,0,51.2-22.9,51.2-51.2s-22.9-51.2-51.2-51.2s-51.2,22.9-51.2,51.2
				C93.9,361.1,116.8,384,145.1,384z M145.1,298.7c18.9,0,34.1,15.3,34.1,34.1c0,18.9-15.3,34.1-34.1,34.1s-34.1-15.3-34.1-34.1
				C111,314,126.2,298.7,145.1,298.7z"/>
			<path class="st0" d="M409.6,281.6H230.4c-4.7,0-8.5,3.8-8.5,8.5s3.8,8.5,8.5,8.5h179.2c4.7,0,8.5-3.8,8.5-8.5
				S414.3,281.6,409.6,281.6z"/>
			<path class="st0" d="M409.6,324.3H230.4c-4.7,0-8.5,3.8-8.5,8.5c0,4.7,3.8,8.5,8.5,8.5h179.2c4.7,0,8.5-3.8,8.5-8.5
				C418.1,328.1,414.3,324.3,409.6,324.3z"/>
			<path class="st0" d="M409.6,366.9H230.4c-4.7,0-8.5,3.8-8.5,8.5s3.8,8.5,8.5,8.5h179.2c4.7,0,8.5-3.8,8.5-8.5
				S414.3,366.9,409.6,366.9z"/>
			<path class="st0" d="M409.6,409.6H102.4c-4.7,0-8.5,3.8-8.5,8.5s3.8,8.5,8.5,8.5h307.2c4.7,0,8.5-3.8,8.5-8.5
				S414.3,409.6,409.6,409.6z"/>
			<path class="st0" d="M409.6,452.3H102.4c-4.7,0-8.5,3.8-8.5,8.5s3.8,8.5,8.5,8.5h307.2c4.7,0,8.5-3.8,8.5-8.5
				S414.3,452.3,409.6,452.3z"/>
		</g>
	</g>
</g>
</svg>
