<?xml version="1.0" encoding="utf-8"?>
<!-- Generator: Adobe Illustrator 25.4.1, SVG Export Plug-In . SVG Version: 6.00 Build 0)  -->
<svg version="1.1" id="Outline" xmlns="http://www.w3.org/2000/svg" xmlns:xlink="http://www.w3.org/1999/xlink" x="0px" y="0px"
	 viewBox="0 0 512 512" style="enable-background:new 0 0 512 512;" xml:space="preserve">
<style type="text/css">
	.st0{fill:#DDAC33;}
	.st1{fill:#FFFFFF;}
</style>
<path class="st0" d="M490.7,512H21.3C9.5,512,0,502.5,0,490.7V20.9C0,9.2,9.5-0.3,21.3-0.3h469.5c11.7,0,21.3,9.5,21.3,21.3v469.8
	C512,502.5,502.5,512,490.7,512z"/>
<path class="st1" d="M464.8,104.8H47.2c-4,0-7.2,3.2-7.2,7.2v288c0,4,3.2,7.2,7.2,7.2h417.6c4,0,7.2-3.2,7.2-7.2V112
	C472,108,468.8,104.8,464.8,104.8z M457.6,392.8H54.4V119.2h403.2V392.8z"/>
<path class="st1" d="M76,356.8c0.2,0,16.5,0.2,22,16.7c1,3,3.7,4.9,6.8,4.9h302.4c3.1,0,5.8-2,6.8-4.9c5.4-16.2,21.3-16.7,22-16.7
	c4,0,7.2-3.2,7.2-7.2V162.4c0-4-3.2-7.2-7.2-7.2c-0.2,0-16.5-0.2-22-16.6c-1-3-3.7-4.9-6.8-4.9H104.8c-3.1,0-5.9,2-6.8,4.9
	c-5.4,16.2-21.3,16.6-22,16.6c-4,0-7.2,3.2-7.2,7.2v187.2C68.8,353.6,72,356.8,76,356.8z M83.2,168.7c11.5-2.5,21.2-10.1,26.5-20.7
	h292.7c5.1,10.6,14.9,18.3,26.5,20.7v174.6c-11.5,2.5-21.2,10.1-26.5,20.7H109.7c-5.1-10.6-14.9-18.3-26.5-20.7V168.7z"/>
<path class="st1" d="M133.6,220h129.6c4,0,7.2-3.2,7.2-7.2V184c0-4-3.2-7.2-7.2-7.2H133.6c-4,0-7.2,3.2-7.2,7.2v28.8
	C126.4,216.8,129.6,220,133.6,220z M140.8,191.2H256v14.4H140.8V191.2z"/>
<path class="st1" d="M112,248.8h172.8c4,0,7.2-3.2,7.2-7.2c0-4-3.2-7.2-7.2-7.2H112c-4,0-7.2,3.2-7.2,7.2
	C104.8,245.6,108,248.8,112,248.8z"/>
<path class="st1" d="M112,277.6h172.8c4,0,7.2-3.2,7.2-7.2s-3.2-7.2-7.2-7.2H112c-4,0-7.2,3.2-7.2,7.2S108,277.6,112,277.6z"/>
<path class="st1" d="M241.6,292h-86.4c-4,0-7.2,3.2-7.2,7.2s3.2,7.2,7.2,7.2h86.4c4,0,7.2-3.2,7.2-7.2S245.6,292,241.6,292z"/>
<path class="st1" d="M328,328c0,4,3.2,7.2,7.2,7.2c1.9,0,3.8-0.7,5.1-2.1l23.7-23.7l23.7,23.7c2.8,2.8,7.4,2.8,10.2,0
	c1.4-1.4,2.1-3.1,2.1-5.1v-65.6c19.4-19.9,19.2-51.8-0.7-71.3s-51.8-19.2-71.3,0.7c-19.2,19.6-19.2,50.9,0,70.6L328,328L328,328z
	 M369.1,294.1c-2.8-2.8-7.4-2.8-10.2,0l0,0l-16.6,16.6v-37.9c13.7,6.5,29.5,6.5,43.2,0v37.9L369.1,294.1z M364,191.2
	c19.9,0,36,16.1,36,36s-16.1,36-36,36s-36-16.1-36-36S344.1,191.2,364,191.2z"/>
<path class="st1" d="M364,248.8c12,0,21.6-9.6,21.6-21.6s-9.6-21.6-21.6-21.6s-21.6,9.6-21.6,21.6
	C342.4,239.1,352.1,248.8,364,248.8z M364,220c4,0,7.2,3.2,7.2,7.2s-3.2,7.2-7.2,7.2s-7.2-3.2-7.2-7.2S360,220,364,220z"/>
<path class="st1" d="M184,320.8h-28.8c-4,0-7.2,3.2-7.2,7.2s3.2,7.2,7.2,7.2H184c4,0,7.2-3.2,7.2-7.2S188,320.8,184,320.8z"/>
<path class="st1" d="M241.6,320.8h-28.8c-4,0-7.2,3.2-7.2,7.2s3.2,7.2,7.2,7.2h28.8c4,0,7.2-3.2,7.2-7.2S245.6,320.8,241.6,320.8z"
	/>
</svg>
