<?xml version="1.0" encoding="utf-8"?>
<!-- Generator: Adobe Illustrator 24.3.0, SVG Export Plug-In . SVG Version: 6.00 Build 0)  -->
<svg version="1.1" id="Outline" xmlns="http://www.w3.org/2000/svg" xmlns:xlink="http://www.w3.org/1999/xlink" x="0px" y="0px"
	 viewBox="0 0 512 512" style="enable-background:new 0 0 512 512;" xml:space="preserve">
<style type="text/css">
	.st0{fill:#62B762;}
</style>
<path class="st0" d="M488,88H24c-4.4,0-8,3.6-8,8v320c0,4.4,3.6,8,8,8h464c4.4,0,8-3.6,8-8V96C496,91.6,492.4,88,488,88z M480,408
	H32V104h448V408z"/>
<path class="st0" d="M56,368c0.2,0,18.3,0.2,24.4,18.5c1.1,3.3,4.1,5.5,7.6,5.5h336c3.4,0,6.5-2.2,7.6-5.5c6-18,23.7-18.5,24.4-18.5
	c4.4,0,8-3.6,8-8V152c0-4.4-3.6-8-8-8c-0.2,0-18.3-0.2-24.4-18.5c-1.1-3.3-4.1-5.5-7.6-5.5H88c-3.4,0-6.5,2.2-7.6,5.5
	c-6,18-23.7,18.5-24.4,18.5c-4.4,0-8,3.6-8,8v208C48,364.4,51.6,368,56,368z M64,159c12.8-2.8,23.6-11.2,29.4-23h325.2
	c5.7,11.8,16.6,20.3,29.4,23V353c-12.8,2.8-23.6,11.2-29.4,23H93.4c-5.7-11.8-16.6-20.3-29.4-23V159z"/>
<path class="st0" d="M120,216h144c4.4,0,8-3.6,8-8v-32c0-4.4-3.6-8-8-8H120c-4.4,0-8,3.6-8,8v32C112,212.4,115.6,216,120,216z
	 M128,184h128v16H128V184z"/>
<path class="st0" d="M96,248h192c4.4,0,8-3.6,8-8s-3.6-8-8-8H96c-4.4,0-8,3.6-8,8S91.6,248,96,248z"/>
<path class="st0" d="M96,280h192c4.4,0,8-3.6,8-8s-3.6-8-8-8H96c-4.4,0-8,3.6-8,8S91.6,280,96,280z"/>
<path class="st0" d="M240,296h-96c-4.4,0-8,3.6-8,8s3.6,8,8,8h96c4.4,0,8-3.6,8-8S244.4,296,240,296z"/>
<path class="st0" d="M336,336c0,4.4,3.6,8,8,8c2.1,0,4.2-0.8,5.7-2.3l26.3-26.3l26.3,26.3c3.1,3.1,8.2,3.1,11.3,0
	c1.5-1.5,2.3-3.5,2.3-5.7v-72.9c21.6-22.1,21.3-57.5-0.8-79.2s-57.5-21.3-79.2,0.8c-21.3,21.8-21.3,56.6,0,78.4V336z M381.7,298.3
	c-3.1-3.1-8.2-3.1-11.3,0c0,0,0,0,0,0L352,316.7v-42.1c15.2,7.2,32.8,7.2,48,0v42.1L381.7,298.3z M376,184c22.1,0,40,17.9,40,40
	s-17.9,40-40,40s-40-17.9-40-40C336,201.9,353.9,184,376,184z"/>
<path class="st0" d="M376,248c13.3,0,24-10.7,24-24s-10.7-24-24-24s-24,10.7-24,24C352,237.2,362.8,248,376,248z M376,216
	c4.4,0,8,3.6,8,8s-3.6,8-8,8s-8-3.6-8-8C368,219.6,371.6,216,376,216z"/>
<path class="st0" d="M176,328h-32c-4.4,0-8,3.6-8,8s3.6,8,8,8h32c4.4,0,8-3.6,8-8S180.4,328,176,328z"/>
<path class="st0" d="M240,328h-32c-4.4,0-8,3.6-8,8s3.6,8,8,8h32c4.4,0,8-3.6,8-8S244.4,328,240,328z"/>
</svg>
