<?xml version="1.0" encoding="utf-8"?>
<!-- Generator: Adobe Illustrator 24.3.0, SVG Export Plug-In . SVG Version: 6.00 Build 0)  -->
<svg version="1.1" id="Capa_1" xmlns="http://www.w3.org/2000/svg" xmlns:xlink="http://www.w3.org/1999/xlink" x="0px" y="0px"
	 viewBox="0 0 512 512" style="enable-background:new 0 0 512 512;" xml:space="preserve">
<style type="text/css">
	.st0{fill:#DDAC33;}
</style>
<g>
	<path class="st0" d="M481.2,34H30.8C13.8,34,0,47.8,0,64.8v291.5c0,17,13.8,30.8,30.8,30.8h158.8v38l-42.4,29.5
		c-4.7,3.2-6.7,9.1-5,14.5s6.7,9.1,12.3,9.1h202.8c5.7,0,10.6-3.6,12.3-9.1c1.7-5.4-0.3-11.3-5-14.5L322.4,425v-38h158.8
		c17,0,30.8-13.8,30.8-30.8V64.8C512,47.8,498.2,34,481.2,34L481.2,34z M30.8,48.9h450.4c8.7,0,15.8,7.1,15.8,15.8v261.9H15V64.8
		C15,56,22.1,48.9,30.8,48.9L30.8,48.9z M481.2,372H288.9c-4.1,0-7.5,3.4-7.5,7.5c0,4.1,3.4,7.5,7.5,7.5h18.5v41.9
		c0,2.5,1.2,4.7,3.2,6.1l40.3,28H161.1l38.4-26.7h81.9c4.1,0,7.5-3.4,7.5-7.5c0-4.1-3.4-7.5-7.5-7.5h-76.8V387H257
		c4.1,0,7.5-3.4,7.5-7.5c0-4.1-3.4-7.5-7.5-7.5H30.8c-8.7,0-15.8-7.1-15.8-15.8v-14.6H497v14.6C497,364.9,489.9,372,481.2,372
		L481.2,372z"/>
	<path class="st0" d="M129.8,292.4c46.7,0,84.6-38,84.6-84.6s-38-84.6-84.6-84.6c-18.6,0-36.2,5.9-51,17.1
		c-3.3,2.5-3.9,7.2-1.4,10.5c2.5,3.3,7.2,3.9,10.5,1.4c12.2-9.2,26.7-14.1,42-14.1c9.2,0,17.9,1.8,26,5l-31.7,59.4l-56.3,36.9
		c-4.9-9.5-7.7-20.3-7.7-31.7c0-11.8,3-23.5,8.7-33.7c2-3.6,0.7-8.2-2.9-10.2c-3.6-2-8.2-0.7-10.2,2.9c-6.9,12.5-10.6,26.7-10.6,41
		C45.2,254.5,83.2,292.4,129.8,292.4L129.8,292.4z M199.5,207.8c0,6.6-0.9,12.9-2.7,19L140.4,204l28.6-53.7
		C187.4,162.8,199.5,183.9,199.5,207.8L199.5,207.8z M130.7,216.2l60.6,24.5c-11.8,21.9-34.9,36.8-61.4,36.8
		c-21.6,0-41-9.9-53.8-25.4L130.7,216.2z"/>
	<path class="st0" d="M271.6,147.2h182.4c7.8,0,14.2-6.4,14.2-14.2v-24.7c0-7.8-6.4-14.2-14.2-14.2h-23.7c-4.1,0-7.5,3.4-7.5,7.5
		s3.4,7.5,7.5,7.5h22.9v23.1H272.4v-23.1h126c4.1,0,7.5-3.4,7.5-7.5s-3.4-7.5-7.5-7.5H271.6c-7.8,0-14.2,6.4-14.2,14.2V133
		C257.4,140.8,263.7,147.2,271.6,147.2L271.6,147.2z"/>
	<path class="st0" d="M271.6,221.5h108.7c7.8,0,14.2-6.4,14.2-14.2v-24.7c0-7.8-6.4-14.2-14.2-14.2H271.6c-7.8,0-14.2,6.4-14.2,14.2
		v24.7C257.4,215.1,263.7,221.5,271.6,221.5L271.6,221.5z M272.4,183.3h107.1v23.1H272.4V183.3z"/>
	<path class="st0" d="M271.6,295.7h62.2c7.8,0,14.2-6.4,14.2-14.2v-24.7c0-7.8-6.4-14.2-14.2-14.2h-62.2c-7.8,0-14.2,6.4-14.2,14.2
		v24.7C257.4,289.3,263.7,295.7,271.6,295.7z M272.4,257.6H333v23.1h-60.7V257.6z"/>
</g>
</svg>
