<?xml version="1.0" encoding="utf-8"?>
<!-- Generator: Adobe Illustrator 25.4.1, SVG Export Plug-In . SVG Version: 6.00 Build 0)  -->
<svg version="1.1" id="Capa_1" xmlns="http://www.w3.org/2000/svg" xmlns:xlink="http://www.w3.org/1999/xlink" x="0px" y="0px"
	 viewBox="0 0 512 512" style="enable-background:new 0 0 512 512;" xml:space="preserve">
<style type="text/css">
	.st0{fill:#DDAC33;}
	.st1{fill:#FFFFFF;}
</style>
<path class="st0" d="M490.7,512H21.3C9.5,512,0,502.5,0,490.7V20.9C0,9.2,9.5-0.3,21.3-0.3h469.5c11.7,0,21.3,9.5,21.3,21.3v469.8
	C512,502.5,502.5,512,490.7,512z"/>
<g>
	<path class="st1" d="M454.1,60.7H57.9c-15,0-27.1,12.1-27.1,27.1v256.4c0,15,12.1,27.1,27.1,27.1h139.7v33.4l-37.3,26
		c-4.1,2.8-5.9,8-4.4,12.8s5.9,8,10.8,8h178.4c5,0,9.3-3.2,10.8-8c1.5-4.8-0.3-9.9-4.4-12.8l-37.1-26v-33.4h139.7
		c15,0,27.1-12.1,27.1-27.1V87.8C481.2,72.9,469.1,60.7,454.1,60.7L454.1,60.7z M57.9,73.8h396.2c7.7,0,13.9,6.2,13.9,13.9v230.4H44
		V87.8C44,80.1,50.2,73.8,57.9,73.8L57.9,73.8z M454.1,358.1H284.9c-3.6,0-6.6,3-6.6,6.6s3,6.6,6.6,6.6h16.3v36.9
		c0,2.2,1.1,4.1,2.8,5.4l35.5,24.6h-167l33.8-23.5h72c3.6,0,6.6-3,6.6-6.6s-3-6.6-6.6-6.6h-67.6v-30.2h46.1c3.6,0,6.6-3,6.6-6.6
		s-3-6.6-6.6-6.6h-199c-7.7,0-13.9-6.2-13.9-13.9v-12.8h424v12.8C468,351.8,461.8,358.1,454.1,358.1L454.1,358.1z"/>
	<path class="st1" d="M145,288c41.1,0,74.4-33.4,74.4-74.4S186,139.2,145,139.2c-16.4,0-31.8,5.2-44.9,15c-2.9,2.2-3.4,6.3-1.2,9.2
		s6.3,3.4,9.2,1.2c10.7-8.1,23.5-12.4,36.9-12.4c8.1,0,15.7,1.6,22.9,4.4l-27.9,52.3l-49.5,32.5c-4.3-8.4-6.8-17.9-6.8-27.9
		c0-10.4,2.6-20.7,7.7-29.6c1.8-3.2,0.6-7.2-2.6-9c-3.2-1.8-7.2-0.6-9,2.6c-6.1,11-9.3,23.5-9.3,36.1C70.6,254.7,104,288,145,288
		L145,288z M206.3,213.6c0,5.8-0.8,11.3-2.4,16.7l-49.6-20.1l25.2-47.2C195.7,174,206.3,192.6,206.3,213.6L206.3,213.6z M145.8,221
		l53.3,21.6c-10.4,19.3-30.7,32.4-54,32.4c-19,0-36.1-8.7-47.3-22.3L145.8,221z"/>
	<path class="st1" d="M269.7,160.3h160.5c6.9,0,12.5-5.6,12.5-12.5v-21.7c0-6.9-5.6-12.5-12.5-12.5h-20.8c-3.6,0-6.6,3-6.6,6.6
		s3,6.6,6.6,6.6h20.1v20.3h-159v-20.3h110.8c3.6,0,6.6-3,6.6-6.6s-3-6.6-6.6-6.6H269.7c-6.9,0-12.5,5.6-12.5,12.5v21.7
		C257.2,154.7,262.8,160.3,269.7,160.3L269.7,160.3z"/>
	<path class="st1" d="M269.7,225.7h95.6c6.9,0,12.5-5.6,12.5-12.5v-21.7c0-6.9-5.6-12.5-12.5-12.5h-95.6c-6.9,0-12.5,5.6-12.5,12.5
		v21.7C257.2,220,262.8,225.7,269.7,225.7L269.7,225.7z M270.4,192.1h94.2v20.3h-94.2V192.1z"/>
	<path class="st1" d="M269.7,290.9h54.7c6.9,0,12.5-5.6,12.5-12.5v-21.7c0-6.9-5.6-12.5-12.5-12.5h-54.7c-6.9,0-12.5,5.6-12.5,12.5
		v21.7C257.2,285.3,262.8,290.9,269.7,290.9z M270.4,257.4h53.3v20.3h-53.4L270.4,257.4L270.4,257.4z"/>
</g>
</svg>
